<svg id="logo-53" width="169" height="42" viewBox="0 0 169 42" fill="none" xmlns="http://www.w3.org/2000/svg"> <path d="M50.8601 29.3532H62.8121V25.7532H55.1081V12.1932H50.8601V29.3532Z" class="cneutral" fill="#1A1414"></path> <path d="M69.8932 26.9532C68.1892 26.9532 67.3012 25.4652 67.3012 23.2332C67.3012 21.0012 68.1892 19.4892 69.8932 19.4892C71.5972 19.4892 72.5092 21.0012 72.5092 23.2332C72.5092 25.4652 71.5972 26.9532 69.8932 26.9532ZM69.9172 29.7372C73.8772 29.7372 76.4692 26.9292 76.4692 23.2332C76.4692 19.5372 73.8772 16.7292 69.9172 16.7292C65.9812 16.7292 63.3412 19.5372 63.3412 23.2332C63.3412 26.9292 65.9812 29.7372 69.9172 29.7372Z" class="cneutral" fill="#1A1414"></path> <path d="M83.3237 33.6012C85.1477 33.6012 86.7557 33.1932 87.8357 32.2332C88.8197 31.3452 89.4677 30.0012 89.4677 28.1532V17.0652H85.7237V18.3852H85.6757C84.9557 17.3532 83.8517 16.7052 82.2197 16.7052C79.1717 16.7052 77.0597 19.2492 77.0597 22.8492C77.0597 26.6172 79.6277 28.6812 82.3877 28.6812C83.8757 28.6812 84.8117 28.0812 85.5317 27.2652H85.6277V28.4892C85.6277 29.9772 84.9317 30.8412 83.2757 30.8412C81.9797 30.8412 81.3317 30.2892 81.1157 29.6412H77.3237C77.7077 32.2092 79.9397 33.6012 83.3237 33.6012ZM83.2997 25.7772C81.8357 25.7772 80.8757 24.5772 80.8757 22.7292C80.8757 20.8572 81.8357 19.6572 83.2997 19.6572C84.9317 19.6572 85.7957 21.0492 85.7957 22.7052C85.7957 24.4332 85.0037 25.7772 83.2997 25.7772Z" class="cneutral" fill="#1A1414"></path> <path d="M97.166 26.9532C95.462 26.9532 94.574 25.4652 94.574 23.2332C94.574 21.0012 95.462 19.4892 97.166 19.4892C98.87 19.4892 99.782 21.0012 99.782 23.2332C99.782 25.4652 98.87 26.9532 97.166 26.9532ZM97.19 29.7372C101.15 29.7372 103.742 26.9292 103.742 23.2332C103.742 19.5372 101.15 16.7292 97.19 16.7292C93.254 16.7292 90.614 19.5372 90.614 23.2332C90.614 26.9292 93.254 29.7372 97.19 29.7372Z" class="cneutral" fill="#1A1414"></path> <path d="M104.884 29.3532H108.796V17.0652H104.884V29.3532ZM104.884 15.3612H108.796V12.1932H104.884V15.3612Z" class="cneutral" fill="#1A1414"></path> <path d="M110.494 33.4092H114.406V28.0812H114.454C115.222 29.1132 116.35 29.7372 117.934 29.7372C121.15 29.7372 123.286 27.1932 123.286 23.2092C123.286 19.5132 121.294 16.7052 118.03 16.7052C116.35 16.7052 115.15 17.4492 114.31 18.5532H114.238V17.0652H110.494V33.4092ZM116.926 26.7132C115.246 26.7132 114.286 25.3452 114.286 23.3532C114.286 21.3612 115.15 19.8492 116.854 19.8492C118.534 19.8492 119.326 21.2412 119.326 23.3532C119.326 25.4412 118.414 26.7132 116.926 26.7132Z" class="cneutral" fill="#1A1414"></path> <path d="M129.655 29.7372C132.871 29.7372 135.247 28.3452 135.247 25.6572C135.247 22.5132 132.703 21.9612 130.543 21.6012C128.983 21.3132 127.591 21.1932 127.591 20.3292C127.591 19.5612 128.335 19.2012 129.295 19.2012C130.375 19.2012 131.119 19.5372 131.263 20.6412H134.863C134.671 18.2172 132.799 16.7052 129.319 16.7052C126.415 16.7052 124.015 18.0492 124.015 20.6412C124.015 23.5212 126.295 24.0972 128.431 24.4572C130.063 24.7452 131.551 24.8652 131.551 25.9692C131.551 26.7612 130.807 27.1932 129.631 27.1932C128.335 27.1932 127.519 26.5932 127.375 25.3692H123.679C123.799 28.0812 126.055 29.7372 129.655 29.7372Z" class="cneutral" fill="#1A1414"></path> <path d="M140.561 29.7132C142.265 29.7132 143.345 29.0412 144.233 27.8412H144.305V29.3532H148.049V17.0652H144.137V23.9292C144.137 25.3932 143.321 26.4012 141.977 26.4012C140.729 26.4012 140.129 25.6572 140.129 24.3132V17.0652H136.241V25.1292C136.241 27.8652 137.729 29.7132 140.561 29.7132Z" class="cneutral" fill="#1A1414"></path> <path d="M149.75 29.3532H153.662V22.4652C153.662 21.0012 154.382 19.9692 155.606 19.9692C156.782 19.9692 157.334 20.7372 157.334 22.0572V29.3532H161.246V22.4652C161.246 21.0012 161.942 19.9692 163.19 19.9692C164.366 19.9692 164.918 20.7372 164.918 22.0572V29.3532H168.83V21.3612C168.83 18.6012 167.438 16.7052 164.654 16.7052C163.07 16.7052 161.75 17.3772 160.79 18.8652H160.742C160.118 17.5452 158.894 16.7052 157.286 16.7052C155.51 16.7052 154.334 17.5452 153.566 18.8172H153.494V17.0652H149.75V29.3532Z" class="cneutral" fill="#1A1414"></path> <path fill-rule="evenodd" clip-rule="evenodd" d="M20.6842 0.961929C31.946 0.961929 41.0755 10.0914 41.0755 21.3532C41.0755 32.6151 31.946 41.7446 20.6842 41.7446C9.42234 41.7446 0.292847 32.6151 0.292847 21.3532C0.292847 10.0914 9.42234 0.961929 20.6842 0.961929ZM40.2928 21.3532C40.2928 10.5237 31.5137 1.74455 20.6842 1.74455C19.8106 1.74455 18.9505 1.80167 18.1071 1.91238C18.652 1.86474 19.2034 1.84042 19.7606 1.84042C30.1088 1.84042 38.4977 10.2293 38.4977 20.5775C38.4977 30.9256 30.1088 39.3145 19.7606 39.3145C9.96366 39.3145 1.92284 31.7956 1.09401 22.2135C1.54426 32.6439 10.1428 40.9619 20.6842 40.9619C31.5137 40.9619 40.2928 32.1828 40.2928 21.3532ZM37.715 20.5775C37.715 10.6615 29.6766 2.62305 19.7606 2.62305C18.9555 2.62305 18.1627 2.67605 17.3856 2.77874C17.8641 2.73848 18.3482 2.71794 18.8371 2.71794C28.2717 2.71794 35.9199 10.3662 35.9199 19.8007C35.9199 29.2353 28.2717 36.8835 18.8371 36.8835C9.91648 36.8835 2.59287 30.0458 1.8215 21.3256C2.21369 30.8946 10.0953 38.5319 19.7606 38.5319C29.6766 38.5319 37.715 30.4934 37.715 20.5775ZM18.8371 3.50057C27.8394 3.50057 35.1373 10.7984 35.1373 19.8007C35.1373 28.803 27.8394 36.1008 18.8371 36.1008C10.0434 36.1008 2.87602 29.1372 2.54867 20.4235C3.25542 28.2885 9.86471 34.4524 17.9137 34.4524C26.434 34.4524 33.3412 27.5453 33.3412 19.0249C33.3412 10.5045 26.434 3.59741 17.9137 3.59741C17.4729 3.59741 17.0364 3.6159 16.605 3.65213C17.3348 3.5522 18.0799 3.50057 18.8371 3.50057ZM32.5585 19.0249C32.5585 10.9368 26.0018 4.38004 17.9137 4.38004C17.2303 4.38004 16.5578 4.42684 15.8994 4.51742C16.2589 4.48928 16.6223 4.47495 16.9891 4.47495C24.5959 4.47495 30.7624 10.6414 30.7624 18.2482C30.7624 25.8549 24.5959 32.0214 16.9891 32.0214C9.82947 32.0214 3.94576 26.5585 3.27885 19.5736C3.56738 27.4075 10.0092 33.6698 17.9137 33.6698C26.0018 33.6698 32.5585 27.1131 32.5585 19.0249ZM16.9891 5.25757C24.1636 5.25757 29.9797 11.0737 29.9797 18.2482C29.9797 25.4227 24.1636 31.2388 16.9891 31.2388C9.95594 31.2388 4.2282 25.6496 4.00526 18.6706C4.60739 24.8008 9.77718 29.5904 16.0656 29.5904C22.7588 29.5904 28.1846 24.1645 28.1846 17.4714C28.1846 10.7783 22.7588 5.35246 16.0656 5.35246C15.7587 5.35246 15.4544 5.36387 15.1532 5.38629C15.753 5.30145 16.3659 5.25757 16.9891 5.25757ZM27.402 17.4714C27.402 11.2105 22.3265 6.13509 16.0656 6.13509C15.4941 6.13509 14.9325 6.17738 14.3837 6.259C14.6342 6.24106 14.8871 6.23193 15.1422 6.23193C20.9211 6.23193 25.6059 10.9167 25.6059 16.6956C25.6059 22.4746 20.9211 27.1593 15.1422 27.1593C9.72697 27.1593 5.27257 23.0458 4.73324 17.773C4.89313 23.8945 9.90561 28.8078 16.0656 28.8078C22.3265 28.8078 27.402 23.7323 27.402 17.4714ZM15.1422 7.01456C20.4889 7.01456 24.8232 11.3489 24.8232 16.6956C24.8232 22.0424 20.4889 26.3767 15.1422 26.3767C9.86348 26.3767 5.57156 22.152 5.46317 16.8993C5.9508 21.3032 9.68475 24.7283 14.2187 24.7283C19.084 24.7283 23.0281 20.7842 23.0281 15.9189C23.0281 11.0536 19.084 7.10945 14.2187 7.10945C14.0326 7.10945 13.8479 7.11522 13.6647 7.12659C14.1464 7.05282 14.6398 7.01456 15.1422 7.01456ZM22.2455 15.9189C22.2455 11.4858 18.6518 7.89208 14.2187 7.89208C13.7735 7.89208 13.3368 7.92832 12.9113 7.99801C13.0381 7.99133 13.1657 7.98795 13.2942 7.98795C17.2458 7.98795 20.4493 11.1914 20.4493 15.1431C20.4493 19.0948 17.2458 22.2983 13.2942 22.2983C9.64023 22.2983 6.626 19.5593 6.19252 16.0225C6.24802 20.4079 9.8202 23.9457 14.2187 23.9457C18.6518 23.9457 22.2455 20.352 22.2455 15.9189ZM13.2942 8.77057C16.8136 8.77057 19.6667 11.6236 19.6667 15.1431C19.6667 18.6626 16.8136 21.5156 13.2942 21.5156C9.77471 21.5156 6.92163 18.6626 6.92163 15.1431C6.92163 15.1347 6.92165 15.1262 6.92168 15.1178C7.2881 17.7998 9.58806 19.8663 12.3707 19.8663C15.4082 19.8663 17.8706 17.4039 17.8706 14.3664C17.8706 11.3288 15.4082 8.86646 12.3707 8.86646C12.302 8.86646 12.2336 8.86771 12.1655 8.87021C12.5318 8.80474 12.909 8.77057 13.2942 8.77057ZM17.0879 14.3664C17.0879 11.7611 14.976 9.64908 12.3707 9.64908C9.7654 9.64908 7.6534 11.7611 7.6534 14.3664C7.6534 16.9716 9.7654 19.0836 12.3707 19.0836C14.976 19.0836 17.0879 16.9716 17.0879 14.3664Z" class="cneutral" fill="#1A1414"></path> </svg>