<?xml version="1.0" encoding="utf-8"?><svg version="1.1" id="Layer_1" xmlns="http://www.w3.org/2000/svg" xmlns:xlink="http://www.w3.org/1999/xlink" x="0px" y="0px" viewBox="0 0 94.59 122.88" style="enable-background:new 0 0 94.59 122.88" xml:space="preserve"><style type="text/css">.st0{fill:#5B2C06;} .st1{fill-rule:evenodd;clip-rule:evenodd;fill:#FFFFFF;} .st2{fill:#6EC030;} .st3{fill:#FFFFFF;} .st4{fill:#4DA900;}</style><g><path class="st0" d="M41.61,35.83c-0.02-0.28-0.04-0.57-0.05-0.84c-9.11,0.91-20.92-4.69-26.89-11.31 C9.45,17.91,7.22,10.35,6.25,0.04c3.77-0.15,7.53,0.1,11.31,1c14.46,3.43,22.39,15.35,23.97,29.34c0.28-6.23,1.95-11.48,4.69-15.71 c3.58-5.52,8.93-9.23,15.41-11.04c2.13-0.59,4.37-0.97,6.67-1.15c1.9-0.14,3.55,1.28,3.7,3.18c0.13,1.9-1.28,3.55-3.18,3.7 c-1.9,0.15-3.69,0.44-5.35,0.9c-4.87,1.36-8.85,4.09-11.48,8.15c-2.7,4.17-4.02,9.82-3.5,16.9l1.74,9.43l-3.6,6.61l-2.37-2.33 l-2.3-4.42C41.8,43.59,41.7,36.87,41.61,35.83L41.61,35.83z"/><path class="st1" d="M13.38,6.24c11.52,8.99,15.07,10.65,23.13,22.88C25.1,20.23,22.14,17.74,13.38,6.24L13.38,6.24z"/><path class="st2" d="M24.92,93.76c-0.84,0.6-1.73,1.14-2.64,1.62c-0.56,0.42-1.08,0.88-1.58,1.36c-2.76,2.76-4.48,6.59-4.48,10.83 c0,4.22,1.71,8.05,4.48,10.83c2.76,2.76,6.59,4.47,10.83,4.47c2.37,0,4.61-0.54,6.62-1.5c0.57-0.35,1.14-0.67,1.74-0.98 c0.89-0.58,1.71-1.24,2.46-1.99c2.2-2.2,3.73-5.07,4.26-8.28c0.75,2.83,2.24,5.36,4.24,7.37c2.95,2.95,7.05,4.79,11.58,4.79 c2.54,0,4.93-0.58,7.08-1.61c0.61-0.37,1.22-0.72,1.86-1.05c0.95-0.63,1.83-1.33,2.64-2.13c2.95-2.96,4.79-7.05,4.79-11.58 c0-4.51-1.83-8.61-4.79-11.58c-2.96-2.95-7.05-4.79-11.58-4.79c-1.23,0-2.43,0.14-3.58,0.39c2.36-2.79,3.78-6.42,3.78-10.38h-0.02 c0-4.39-1.73-8.36-4.53-11.22l0,0c-2.8-2.86-6.69-4.65-10.98-4.65c-2.14,0-4.18,0.44-6.03,1.24c0.43-0.34,0.84-0.71,1.23-1.1 c2.24-2.24,3.78-5.17,4.29-8.45c0.74,2.62,2.14,4.96,4.01,6.83c2.83,2.83,6.74,4.58,11.08,4.58l0,0c2.5,0,4.86-0.58,6.96-1.63 c-0.48,0.38-0.93,0.78-1.36,1.21c-2.9,2.9-4.68,6.89-4.68,11.31s1.79,8.41,4.68,11.31c2.9,2.9,6.89,4.68,11.31,4.68v0.02 c4.41,0,8.41-1.8,11.31-4.7c2.9-2.9,4.69-6.89,4.69-11.31s-1.79-8.41-4.69-11.31l0,0c-2.9-2.9-6.89-4.68-11.31-4.68 c-2.55,0-4.95,0.59-7.09,1.65c0.44-0.35,0.86-0.73,1.25-1.13c2.82-2.83,4.58-6.75,4.58-11.08c0.01-4.33-1.74-8.23-4.58-11.08l0,0 c-2.83-2.83-6.75-4.6-11.08-4.6c-4.32,0-8.23,1.75-11.08,4.6c-2.31,2.31-3.9,5.35-4.41,8.75c-0.72-2.54-2.08-4.82-3.89-6.63l0,0 c-2.76-2.76-6.59-4.47-10.83-4.47c-4.22,0-8.05,1.71-10.83,4.47c-2.76,2.76-4.47,6.59-4.47,10.83c0,4.22,1.71,8.05,4.47,10.83 c0.62,0.62,1.29,1.18,2.01,1.69c-2.03-0.93-4.29-1.45-6.67-1.45c-4.42,0-8.41,1.79-11.31,4.69C1.79,71.65,0,75.65,0,80.06 c0,4.42,1.79,8.41,4.68,11.31c2.9,2.9,6.89,4.68,11.31,4.68c4.41,0,8.41-1.79,11.31-4.68c2.38-2.38,4.01-5.51,4.52-9 c0.57,3.26,2.11,6.17,4.31,8.42c2.8,2.86,6.69,4.65,10.98,4.65c1.03,0,2.03-0.1,3-0.3c-2,2.29-3.37,5.14-3.85,8.29 c-0.72-2.56-2.08-4.85-3.91-6.68c-2.76-2.76-6.59-4.47-10.83-4.47C29.17,92.28,26.92,92.82,24.92,93.76L24.92,93.76L24.92,93.76z M37.54,67.06c-0.49,0.4-0.97,0.82-1.41,1.28c-2.3,2.35-3.9,5.45-4.39,8.92c-0.58-3.29-2.17-6.24-4.44-8.51l0,0 c-0.67-0.67-1.39-1.27-2.16-1.82c1.93,0.88,4.08,1.37,6.35,1.37l0,0C33.63,68.31,35.68,67.86,37.54,67.06L37.54,67.06z"/><path class="st3" d="M62.19,89.11c-0.21-0.37-0.42-0.75-0.6-1.13c-0.2,0.41-0.42,0.81-0.65,1.2 C61.35,89.14,61.77,89.11,62.19,89.11L62.19,89.11L62.19,89.11z"/><path class="st3" d="M62.17,70.77c-0.7-0.01-1.39-0.07-2.07-0.16c0.44,0.59,0.84,1.22,1.2,1.87 C61.56,71.89,61.85,71.32,62.17,70.77L62.17,70.77L62.17,70.77z"/><path class="st3" d="M46.94,61.26c-0.48,0.89-1.02,1.74-1.65,2.53c0.42-0.04,0.85-0.05,1.28-0.05c0.68,0,1.34,0.04,2.01,0.12 C47.96,63.05,47.41,62.18,46.94,61.26L46.94,61.26L46.94,61.26z"/><path class="st3" d="M31.62,70.52c0.23,0.38,0.46,0.78,0.67,1.18c0.27-0.43,0.56-0.85,0.86-1.26 C32.65,70.5,32.14,70.52,31.62,70.52L31.62,70.52L31.62,70.52z"/><path class="st1" d="M67.97,41.97c-0.36-0.09-0.58-0.46-0.49-0.82c0.09-0.36,0.46-0.58,0.82-0.49c1.55,0.38,2.67,1.15,3.41,2.25 c0.73,1.07,1.08,2.44,1.1,4.07c0,0.37-0.29,0.67-0.66,0.69c-0.37,0-0.68-0.29-0.69-0.66c-0.03-1.36-0.3-2.49-0.88-3.34 C70.03,42.85,69.17,42.27,67.97,41.97L67.97,41.97L67.97,41.97z"/><path class="st1" d="M83.94,69.88c-0.36-0.09-0.58-0.46-0.49-0.82c0.09-0.36,0.46-0.58,0.82-0.49c1.55,0.38,2.67,1.15,3.41,2.25 c0.73,1.07,1.08,2.44,1.1,4.07c0,0.37-0.29,0.67-0.66,0.69c-0.37,0-0.68-0.29-0.69-0.66c-0.03-1.36-0.3-2.49-0.88-3.34 C86,70.76,85.15,70.19,83.94,69.88L83.94,69.88L83.94,69.88z"/><path class="st4" d="M63.45,73.4c-0.54,1.56-0.83,3.24-0.83,4.99l0,0H62.6c0,4.22,1.71,8.05,4.49,10.82 c2.76,2.76,6.59,4.48,10.83,4.48l0,0c2.54,0,4.93-0.62,7.04-1.71c0.42-0.27,0.85-0.53,1.31-0.75c0.9-0.59,1.73-1.26,2.48-2.01 c2.4-2.4,4-5.59,4.39-9.16c-0.76,2.23-2.02,4.22-3.65,5.84c-0.75,0.75-1.58,1.43-2.48,2.01c-0.45,0.22-0.89,0.48-1.31,0.75 c-2.12,1.1-4.51,1.71-7.04,1.71l0,0c-4.24,0-8.06-1.71-10.83-4.48c-2.78-2.78-4.49-6.61-4.49-10.82h0.02l0,0 C63.36,74.51,63.39,73.95,63.45,73.4L63.45,73.4z"/><path class="st1" d="M25.94,45.87c0.36-0.09,0.58-0.46,0.49-0.82c-0.09-0.36-0.46-0.58-0.82-0.49c-1.55,0.38-2.67,1.15-3.41,2.25 c-0.73,1.07-1.08,2.44-1.1,4.07c0,0.37,0.29,0.67,0.66,0.69c0.37,0,0.68-0.29,0.69-0.66c0.03-1.36,0.3-2.49,0.88-3.34 C23.88,46.75,24.73,46.18,25.94,45.87L25.94,45.87L25.94,45.87z"/><path class="st1" d="M9.97,73.79c0.36-0.09,0.58-0.46,0.49-0.82c-0.09-0.36-0.46-0.58-0.82-0.49c-1.55,0.38-2.67,1.15-3.41,2.25 c-0.73,1.07-1.08,2.44-1.1,4.07c0,0.37,0.29,0.67,0.66,0.69c0.37,0,0.68-0.29,0.69-0.66c0.03-1.36,0.3-2.49,0.88-3.34 C7.91,74.67,8.76,74.09,9.97,73.79L9.97,73.79L9.97,73.79z"/><path class="st4" d="M46.87,46.04c-0.55,1.6-0.85,3.32-0.85,5.1l0,0h-0.01c0,1.4,0.19,2.77,0.53,4.07 c-0.77,2.01-1.96,3.81-3.45,5.31c-0.75,0.75-1.58,1.43-2.48,2.01c-0.45,0.22-0.89,0.48-1.31,0.75c-2.12,1.1-4.51,1.71-7.04,1.71 l0,0c-4.24,0-8.06-1.71-10.83-4.48c-2.78-2.78-4.49-6.61-4.49-10.83h0.02l0,0c0-0.56,0.03-1.12,0.09-1.67 c-0.54,1.56-0.83,3.24-0.83,4.99l0,0h-0.01c0,4.22,1.71,8.05,4.49,10.83c2.76,2.76,6.59,4.48,10.83,4.48l0,0 c2.54,0,4.92-0.62,7.04-1.71c0.42-0.27,0.85-0.53,1.31-0.75c0.9-0.59,1.73-1.26,2.48-2.01c2.21-2.21,3.75-5.1,4.27-8.33 c0.74,2.57,2.13,4.87,3.98,6.72c2.83,2.83,6.74,4.58,11.08,4.58l0,0c2.6,0,5.04-0.63,7.2-1.75c0.43-0.28,0.88-0.54,1.34-0.77 c0.92-0.6,1.77-1.29,2.54-2.06c2.45-2.45,4.09-5.72,4.49-9.37c-0.78,2.28-2.07,4.31-3.73,5.98c-0.77,0.77-1.61,1.46-2.54,2.06 c-0.46,0.23-0.91,0.49-1.34,0.77c-2.17,1.12-4.61,1.75-7.2,1.75l0,0c-4.33,0-8.25-1.75-11.08-4.58c-2.84-2.84-4.59-6.76-4.59-11.08 h0.01l0,0C46.78,47.17,46.82,46.6,46.87,46.04L46.87,46.04z M46.98,100.58c-0.58,1.67-0.89,3.47-0.89,5.34l0,0h-0.02 c0,1.34,0.16,2.65,0.47,3.9c-0.78,1.99-1.96,3.78-3.43,5.26c-0.75,0.75-1.58,1.43-2.48,2.01c-0.45,0.22-0.89,0.48-1.31,0.75 c-2.12,1.1-4.51,1.71-7.04,1.71l0,0c-4.23,0-8.06-1.71-10.83-4.48c-2.78-2.78-4.49-6.61-4.49-10.83h0.01l0,0 c0-0.56,0.03-1.12,0.09-1.67c-0.54,1.56-0.83,3.24-0.83,4.99l0,0h-0.01c0,4.22,1.71,8.05,4.49,10.83 c2.76,2.76,6.59,4.48,10.83,4.48l0,0c2.54,0,4.93-0.62,7.04-1.71c0.42-0.27,0.85-0.53,1.31-0.75c0.9-0.59,1.73-1.26,2.48-2.01 c2.19-2.19,3.72-5.05,4.26-8.25c0.75,2.81,2.24,5.33,4.25,7.34c2.96,2.96,7.05,4.79,11.58,4.79l0,0c2.71,0,5.27-0.66,7.53-1.83 c0.45-0.29,0.91-0.56,1.4-0.8c0.97-0.63,1.85-1.35,2.65-2.15c2.56-2.56,4.28-5.99,4.69-9.8c-0.82,2.38-2.17,4.51-3.9,6.25 c-0.8,0.8-1.69,1.53-2.65,2.15c-0.48,0.24-0.95,0.51-1.4,0.8c-2.26,1.17-4.82,1.83-7.53,1.83l0,0c-4.53,0-8.62-1.83-11.58-4.79 c-2.97-2.97-4.8-7.07-4.8-11.58h0.02l0,0C46.88,101.77,46.91,101.17,46.98,100.58L46.98,100.58z M32.69,74.7 c-0.54,1.6-0.83,3.31-0.83,5.1l0,0h-0.01c0,4.31,1.71,8.22,4.49,11.06c2.76,2.82,6.59,4.57,10.83,4.57l0,0 c2.54,0,4.92-0.63,7.04-1.75c0.42-0.27,0.85-0.54,1.31-0.77c0.9-0.6,1.73-1.29,2.48-2.06c2.4-2.45,4-5.72,4.39-9.36 c-0.76,2.27-2.02,4.31-3.65,5.97c-0.75,0.77-1.58,1.46-2.48,2.06c-0.45,0.23-0.89,0.49-1.31,0.77c-2.12,1.12-4.51,1.75-7.04,1.75 l0,0c-4.24,0-8.06-1.75-10.83-4.57c-2.78-2.84-4.49-6.75-4.49-11.06h0.02l0,0C32.6,75.83,32.63,75.26,32.69,74.7L32.69,74.7z M0.84,75.76c-0.54,1.56-0.83,3.24-0.83,4.99l0,0H0c0,4.22,1.71,8.05,4.49,10.83c2.76,2.76,6.59,4.48,10.83,4.48l0,0 c2.54,0,4.93-0.62,7.04-1.71c0.42-0.27,0.85-0.53,1.31-0.75c0.9-0.59,1.73-1.26,2.48-2.01c2.39-2.4,4-5.6,4.39-9.16 c-0.76,2.23-2.03,4.22-3.65,5.84c-0.75,0.75-1.58,1.43-2.48,2.01c-0.45,0.22-0.89,0.48-1.31,0.75c-2.12,1.1-4.51,1.71-7.04,1.71 l0,0c-4.23,0-8.06-1.71-10.83-4.48c-2.78-2.78-4.49-6.61-4.49-10.83h0.01l0,0C0.75,76.87,0.79,76.31,0.84,75.76L0.84,75.76z"/></g></svg>