<svg id="Layer_1" data-name="Layer 1" xmlns="http://www.w3.org/2000/svg" viewBox="0 0 93.06 122.88"><defs><style>.cls-1{fill:#468c1e;}.cls-1,.cls-3{fill-rule:evenodd;}.cls-2{fill:#9dd345;}.cls-3{fill:#4ba523;}</style></defs><title>spinach</title><path class="cls-1" d="M27.77,121.61h5.36L28,120c6.37-19.7,1.39-31.54-1.51-44.84-.94-4.37.08-8.79,2.3-10.38-1.87-.72-3.57-3.15-4.3-6.51-1-4.75.26-9.55,2.9-10.73h0V47.3a11.45,11.45,0,0,1-.82-2.37C25.58,40.57,26.18,35,28,32.48l.12-.15a3.28,3.28,0,0,1-.18-.61,3.75,3.75,0,0,1,2.67-4.4,3.76,3.76,0,0,1,2.21-5.93,3.3,3.3,0,0,1,.61-.08l0-.17a3.76,3.76,0,0,1,2.89-4.46,4.81,4.81,0,0,1,.53-.07,3.76,3.76,0,0,1,3-3.47,4,4,0,0,1,.58-.08,4.71,4.71,0,0,1,.06-2.68,4.67,4.67,0,0,1,7.59-2c0-.13.06-.26.1-.39a3.76,3.76,0,0,1,3.39-2.59,3.75,3.75,0,0,0-1.34-.24,3.71,3.71,0,0,0-1.87.5,3.76,3.76,0,0,0-5.08-2.6,3.76,3.76,0,0,0-6.61-.8c-.64-.06-1.28-.11-1.92-.14a3.73,3.73,0,0,0-4.49-.55A3.76,3.76,0,0,0,23.37,3.2,3.75,3.75,0,0,0,18,5.67a3.71,3.71,0,0,0-1.87-.5,3.75,3.75,0,0,0-3.76,3.75c0,.13,0,.27,0,.4a4.66,4.66,0,0,0-5.84,6.79,3.6,3.6,0,0,0-.52.26A3.74,3.74,0,0,0,4.3,20.58a3.17,3.17,0,0,0-.49.24,3.74,3.74,0,0,0-1.37,5.12l.09.15a3.58,3.58,0,0,0-.56.27A3.74,3.74,0,0,0,.6,31.48a3.82,3.82,0,0,0,1.09,1.2,3.75,3.75,0,0,0-1.19,5,4,4,0,0,0,.36.52l-.06.18c-.93,3,.21,8.44,2.55,12.26a11.94,11.94,0,0,0,1.51,2l.06.18,0,0C2.75,54.78,3,59.75,5.44,64c1.73,3,4.1,4.77,6.09,4.88-1.62,2.19-1.23,6.72,1,10.58,6.85,11.77,15.23,21.49,15.23,42.2Z"/><path class="cls-2" d="M33,121.57H30.41v-.84l2.63.84ZM30.46,110l.07-16.54A54.6,54.6,0,0,1,30.46,110ZM26.22,70.61a57.67,57.67,0,0,1-6.43-7A44.55,44.55,0,0,1,12.62,51.1l-1.19-3.49,2,3.11a109.21,109.21,0,0,0,9.74,12.94c1.27,1.44,2.52,2.76,3.72,3.89a11.75,11.75,0,0,0-.66,3.06ZM25.5,49.32a41.1,41.1,0,0,1-3.87-3.82A43.37,43.37,0,0,1,15,35.26l-1.66-3.47,2.41,3a126.88,126.88,0,0,0,8.52,9.82,40.35,40.35,0,0,0,3.16,2.89h0a4.45,4.45,0,0,0-1.92,1.82Zm1.42-14.61a39,39,0,0,1-4.44-4.57,43.66,43.66,0,0,1-6.25-10.37l-1.61-3.65L17,19.32a121.84,121.84,0,0,0,8.05,10,39.2,39.2,0,0,0,3,3l0,0-.12.15a8.11,8.11,0,0,0-1,2.23Zm4.81-12.92L32,8.66h.89l.38,12.66a3,3,0,0,0-.5.07,3.87,3.87,0,0,0-1.06.4Z"/><path class="cls-3" d="M28,120l9,2.92c7.43-23,19.6-26.51,29-35,3.33-3,5.09-7.16,4.22-9.75,1.93.51,4.74-.47,7.3-2.76C81.23,72.15,83,67.5,81.54,65l-.06-.1a11.66,11.66,0,0,0,2.21-1.53c3.4-2.92,6.17-7.79,6.19-10.88a2.66,2.66,0,0,0,0-.57L90,51.8a3.75,3.75,0,0,0,.42-5.13,3.76,3.76,0,0,0,1.67-6.11,4.47,4.47,0,0,0-.45-.42l.14-.11a3.76,3.76,0,0,0,.27-5.3,3.37,3.37,0,0,0-.39-.37,3.75,3.75,0,0,0-.37-4.55,3.16,3.16,0,0,0-.42-.4,4.67,4.67,0,0,0-1.48-8.08,4.7,4.7,0,0,0-2-.19,2.35,2.35,0,0,0,.14-.37,3.75,3.75,0,0,0-4.35-4.83,3.74,3.74,0,0,0-2.59-3.85,3.78,3.78,0,0,0-1.44-.18,3.76,3.76,0,0,0-6-2.79c-.58-.26-1.18-.5-1.78-.73a3.72,3.72,0,0,0-2.16-1.81,3.82,3.82,0,0,0-2-.1,3.75,3.75,0,0,0-6.94-.54A3.81,3.81,0,0,0,58.78,5a3.75,3.75,0,0,0-4.35,1.61A3.76,3.76,0,0,0,48.07,8c0,.13-.07.26-.1.39a4.67,4.67,0,0,0-7.59,2,4.71,4.71,0,0,0-.06,2.68,4,4,0,0,0-.58.08,3.76,3.76,0,0,0-3,3.47,4.81,4.81,0,0,0-.53.07,3.76,3.76,0,0,0-2.89,4.46l0,.17a3.3,3.3,0,0,0-.61.08,3.76,3.76,0,0,0-2.21,5.93,3.75,3.75,0,0,0-2.67,4.4,3.28,3.28,0,0,0,.18.61l-.12.15c-1.79,2.52-2.39,8.09-1.34,12.45a11.45,11.45,0,0,0,.82,2.37v.19h0c-2.64,1.18-3.93,6-2.9,10.73.73,3.36,2.43,5.79,4.3,6.51-2.22,1.59-3.24,6-2.3,10.38C29.42,88.42,34.4,100.26,28,120Z"/><path class="cls-2" d="M60,75.05a37.05,37.05,0,0,1-11.64,5.31L34.9,122.14l-4.35-1.4L45.34,75.68a52.78,52.78,0,0,1-7.07-13.32,44.33,44.33,0,0,1-3-14.15l-.06-3.69.93,3.57a110.78,110.78,0,0,0,5.29,15.32,39,39,0,0,0,5,8.9l5.64-16.22a43.77,43.77,0,0,1-6.51-10.43,43.49,43.49,0,0,1-3.18-11.79l-.5-3.81,1.36,3.59a127.66,127.66,0,0,0,5.09,12,25.44,25.44,0,0,0,4.9,7.15l3.86-11.11a42.09,42.09,0,0,1-6-10.35,44.11,44.11,0,0,1-2.76-11.79l-.4-4,1.27,3.78a124.53,124.53,0,0,0,4.58,12,22.4,22.4,0,0,0,4.49,6.93L66.83,13.8l.85.27-8.44,29a21.83,21.83,0,0,0,7.76-3,117.39,117.39,0,0,0,10.74-7L81,30.72l-2.65,3a44.25,44.25,0,0,1-9.15,7.95,41.85,41.85,0,0,1-10.95,4.88l-3.3,11.34A24.1,24.1,0,0,0,63.06,55a123.09,123.09,0,0,0,11.15-6.81L77.42,46l-2.64,2.82a43.46,43.46,0,0,1-9.46,7.76A43.82,43.82,0,0,1,54,61.27L49.39,77c5.4-.93,14.89-7.71,21.86-12.69l4.2-3-3.08,3.3A70.68,70.68,0,0,1,60,75.05Z"/></svg>