<svg xmlns="http://www.w3.org/2000/svg" viewBox="0 0 512 512"><rect width="462" height="315" x="50" y="123.5" fill="#8397cc" rx="17.5" ry="17.5"/><path fill="#6d83b5" d="M67.5 123.5A17.52 17.52 0 0 0 50 141v267.5h414.5A17.52 17.52 0 0 0 482 391V123.5Z"/><rect width="462" height="315" y="73.5" fill="#3d58ff" rx="17.5" ry="17.5"/><path fill="#3146cc" d="M20 111a17.52 17.52 0 0 1 17.5-17.5H462V91a17.52 17.52 0 0 0-17.5-17.5h-427A17.52 17.52 0 0 0 0 91v280a17.52 17.52 0 0 0 17.5 17.5H20Z"/><rect width="145" height="55" x="287" y="303.5" fill="#3146cc" rx="17.5" ry="17.5"/><rect width="145" height="55" x="277" y="293.5" fill="#f65d6d" rx="17.5" ry="17.5"/><path fill="#e25065" d="M287 341v-20a17.52 17.52 0 0 1 17.5-17.5h110a17.43 17.43 0 0 1 6.31 1.19 17.54 17.54 0 0 0-16.31-11.19h-110A17.52 17.52 0 0 0 277 311v20a17.54 17.54 0 0 0 11.19 16.31A17.43 17.43 0 0 1 287 341Z"/><path fill="#fff" d="M462 123.5V91a17.52 17.52 0 0 0-17.5-17.5h-427A17.52 17.52 0 0 0 0 91v32.5Z"/><path fill="#e8efff" d="M20 111a17.52 17.52 0 0 1 17.5-17.5H462V91a17.52 17.52 0 0 0-17.5-17.5h-427A17.52 17.52 0 0 0 0 91v32.5h20Z"/><path fill="#f65d6d" d="M190.45 254.33a7.5 7.5 0 0 1-5.45-12.68l22.1-23.15-22.1-23.15A7.5 7.5 0 1 1 195.88 185l27.05 28.33a7.52 7.52 0 0 1 0 10.36L195.88 252a7.45 7.45 0 0 1-5.43 2.33zm-115.9 0a7.45 7.45 0 0 1-5.43-2.33l-27.05-28.32a7.52 7.52 0 0 1 0-10.36L69.12 185A7.5 7.5 0 1 1 80 195.35L57.87 218.5 80 241.65a7.5 7.5 0 0 1-5.42 12.68zM146 268.5a7.49 7.49 0 0 1-7.14-5.23l-27-85a7.5 7.5 0 1 1 14.29-4.54l27 85a7.49 7.49 0 0 1-7.15 9.77z"/><path fill="#fff" d="M281 178.5h-13.5a7.5 7.5 0 0 1 0-15H281a7.5 7.5 0 0 1 0 15zm-36.5 170h-197a7.5 7.5 0 0 1 0-15h197a7.5 7.5 0 0 1 0 15zm0-40H93a7.5 7.5 0 0 1 0-15h151.5a7.5 7.5 0 0 1 0 15zm-190 0h-7a7.5 7.5 0 0 1 0-15h7a7.5 7.5 0 0 1 0 15zm360-130H316a7.5 7.5 0 0 1 0-15h98.5a7.5 7.5 0 0 1 0 15zm0 40h-147a7.5 7.5 0 0 1 0-15h147a7.5 7.5 0 0 1 0 15zm0 45h-147a7.5 7.5 0 0 1 0-15h147a7.5 7.5 0 0 1 0 15z"/><path fill="#8397cc" d="M384.5 106h-10a7.5 7.5 0 0 1 0-15h10a7.5 7.5 0 0 1 0 15zm40 0h-10a7.5 7.5 0 0 1 0-15h10a7.5 7.5 0 0 1 0 15z"/></svg>