<svg xmlns="http://www.w3.org/2000/svg" xmlns:xlink="http://www.w3.org/1999/xlink" width="32" height="32"><defs><linearGradient id="a"><stop offset="0" stop-color="#000092"/><stop offset="1" stop-color="#ff00f3"/></linearGradient><linearGradient id="b" x1="1" x2="30" y1="16" y2="16" gradientUnits="userSpaceOnUse" xlink:href="#a"/></defs><path style="line-height:normal;text-indent:0;text-align:start;text-decoration-line:none;text-decoration-style:solid;text-decoration-color:#000;text-transform:none;block-progression:tb;isolation:auto;mix-blend-mode:normal" fill="url(#b)" d="M1 1v30h30v-1h-3V9.908c.579-.208 1-.76 1-1.406 0-.357-.132-.683-.344-.941l.617-.827.079.73.994-.107-.266-2.484-2.486.266.107.994.838-.09-.734.988A1.508 1.508 0 0 0 26 8.5c0 .255.071.492.186.703l-5.137 6.904A1.478 1.478 0 0 0 20.5 16c-.425 0-.81.182-1.084.47l-4.469-2.603c.031-.119.053-.24.053-.367 0-.822-.678-1.5-1.5-1.5s-1.5.678-1.5 1.5c0 .327.11.627.291.875l-5.367 7.693A1.455 1.455 0 0 0 6.5 22c-.822 0-1.5.677-1.5 1.5 0 .334.115.64.303.89L2 29.124V1H1zm13.861 2.994-.037.996.5.016.836.031.117.014.496.062.125-.992-.496-.062-.144-.018h-.045l-.854-.031-.498-.016zm-1.088.106-.494.07-.334.049h-.023l-.022.01-.644.156-.486.117.234.973.486-.12.631-.15.303-.045.494-.072-.145-.988zm4.207.18-.3.952.476.15.955.302.477.15.3-.953-.476-.15-.955-.301-.477-.15zm-7.242.581-.457.205-.55.248-.022.01-.02.012-.343.195-.436.248.496.87.434-.249.326-.185.527-.236.455-.206-.41-.912zm10.125.512-.467.885.442.234.129.067.678.441.418.273.546-.837-.418-.274-.7-.457-.02-.012-.022-.011-.142-.077-.444-.232zm-12.879.992-.38.322-.721.616-.018.015-.017.016-.035.039-.35.357.717.698.35-.36h.001l.01-.01.711-.607.38-.324-.648-.762zm15.457.785-.693.721.361.346.278.263.008.01.365.424.326.379.758-.654-.326-.377-.373-.434-.016-.02-.018-.015-.31-.297-.36-.346zM27.5 8c.282 0 .5.218.5.5 0 .282-.218.5-.5.5a.493.493 0 0 1-.5-.5c0-.282.218-.5.5-.5zm-21.732.512-.315.388-.07.088-.014.018-.014.02-.49.738-.277.416.832.554.277-.416.48-.722.055-.069.315-.388-.78-.627zm21.16 1.375c.023.01.048.013.072.021V30h-6V18.908c.579-.208 1-.76 1-1.406 0-.265-.077-.512-.2-.729l5.128-6.886zM4.115 11.164l-.197.461-.121.28-.008.019-.008.021-.215.662-.156.475.951.31.155-.474.207-.635.113-.263.197-.461-.918-.395zM13.5 13c.282 0 .5.218.5.5 0 .282-.218.5-.5.5a.493.493 0 0 1-.5-.5c0-.282.218-.5.5-.5zM3.186 14.146l-.069.499-.064.476-.004.02v.023l-.026.518-.021.5.998.047.023-.5.022-.497.062-.455.069-.494-.99-.137zm11.203.555 4.623 2.694c-.003.036-.012.07-.012.107 0 .647.421 1.198 1 1.406V30h-6V14.906c.139-.051.271-.117.389-.205zM13 15.105V30H7v-5.092c.579-.208 1-.76 1-1.406 0-.313-.099-.608-.266-.85L13 15.105zM20.5 17c.282 0 .5.218.5.5 0 .282-.218.5-.5.5a.493.493 0 0 1-.5-.5c0-.282.218-.5.5-.5zm-16.473.135-.992.14.069.495.093.683.004.022.006.023.07.3.114.487.974-.226-.115-.487-.06-.258-.003-.01-.093-.675-.067-.494zm.567 2.804-.914.407.203.457.404.914.203.457.914-.406-.203-.457-.404-.915-.203-.457zM6.5 23c.282 0 .5.218.5.5 0 .282-.218.5-.5.5a.493.493 0 0 1-.5-.5c0-.282.218-.5.5-.5zM6 25.135V30H2.607L6 25.135zm-4 4.857.012.008H2v-.008z" color="#000" font-family="sans-serif" font-weight="400" overflow="visible"/></svg>