<?xml version="1.0" encoding="utf-8"?><svg version="1.1" id="Layer_1" xmlns="http://www.w3.org/2000/svg" xmlns:xlink="http://www.w3.org/1999/xlink" x="0px" y="0px" viewBox="0 0 122.99 119.45" style="enable-background:new 0 0 122.99 119.45" xml:space="preserve"><style type="text/css">.st0{fill-rule:evenodd;clip-rule:evenodd;fill:#75AA00;} .st1{fill-rule:evenodd;clip-rule:evenodd;fill:#F23329;} .st2{fill-rule:evenodd;clip-rule:evenodd;fill:#D61D1D;stroke:#F60D11;stroke-width:0.216;stroke-miterlimit:2.6131;} .st3{fill-rule:evenodd;clip-rule:evenodd;fill:#D61D1D;}</style><g><path class="st0" d="M61.11,1.77c2.01,8.85,3.96,17.04,5.62,21.54c4.95-0.24,8.16-1.58,11.52-2.81c4.13-1.52,7.6-3.47,10.62-5.74 c2.3-1.51,3.6-0.82,3.41,3.08c-0.7,3.63-2.57,6.4-5.41,8.49c0.15-0.01,0.3-0.01,0.45-0.02c-0.55,0.05-1.1,0.1-1.66,0.16l0,0 c7.15,2.1,12.36,6.45,14.18,14.68c0.13,4.15-0.98,6.06-2.72,3.68c-9.16-7.27-17.26-11.14-25.06-9.17 c2.63,6.27,8.12,10.6,13.8,15.26c-10.22,0.15-19.56-3.83-27.82-11.72c-9.23,4.53-22.67,3.29-27.74,10.35 c-2.96,3.63-3.53,1.79-2.74-3.16c2.16-7.89,5.84-12.99,11.22-14.99c-7.91,0.3-13.53-1.52-16.99-3.5c4.03-1.51,8.97-1.68,14.56-2.29 l-8.25-3.35c-1.46-0.95-0.82-1.52,1.55-1.76c10.6-0.4,19.89,0.09,26.87,2.2c-0.11-5.91-2.61-11.82-5.51-17.73L58.57,0L61.11,1.77 L61.11,1.77L61.11,1.77z"/><path class="st1" d="M84.77,26.27c6.89,2.03,11.92,6.22,13.67,14.16c0.13,4-0.43,5.59-2.11,3.29c-8.83-7.01-17.16-10.48-24.69-8.58 c2.53,6.05,7.57,10.78,13.05,15.28c-9.86,0.14-18.6-4.26-26.57-11.87c-8.9,4.37-21.86,3.17-26.76,9.99 c-2.86,3.5-3.41,1.73-2.64-3.05c2.08-7.61,5.63-12.53,10.82-14.46c-8.52,0.32-14.15-0.84-17.36-3.24 c-4.36,1.46-7.73,3.41-10.07,5.88l0,0c-0.05,0.05-0.11,0.11-0.17,0.16c-3.28,2.86-5.83,6.14-7.71,9.75 c-1.97,3.79-3.19,7.93-3.73,12.29C-0.9,67.09,1.57,79.38,7.03,90.03c5.21,10.15,13.1,18.78,22.93,23.48 c6.11,2.93,12.98,4.84,20.69,5.54c7.78,0.7,16.41,0.17,26.01-1.78c7.13-1.46,13.43-3.71,18.94-6.64 c5.75-3.06,10.61-6.84,14.63-11.17c5.85-6.31,9.87-13.97,11.67-22.67c1.74-8.39,1.42-17.77-1.28-27.9l0,0 c-0.69-2.32-1.51-4.45-2.43-6.42c-0.93-1.95-1.95-3.71-3.08-5.28c-3.57-4.96-8.23-8.17-13.83-9.85 C96.47,25.91,90.93,25.6,84.77,26.27L84.77,26.27L84.77,26.27z"/><path class="st2" d="M37.22,32.14c0.73-0.45,1.51-0.82,2.32-1.13c-0.76,0.03-1.5,0.05-2.22,0.05 C37.27,31.45,37.24,31.81,37.22,32.14L37.22,32.14z M10.1,35.53c-2.42,2.43-4.37,5.13-5.88,8.04c-1.97,3.79-3.19,7.93-3.73,12.29 C-0.9,67.09,1.57,79.38,7.03,90.03c5.21,10.15,13.1,18.78,22.93,23.48c6.11,2.93,12.98,4.84,20.69,5.54 c7.78,0.7,16.41,0.17,26.01-1.78c7.13-1.46,13.43-3.71,18.94-6.64c5.75-3.06,10.61-6.84,14.63-11.17 c4.67-5.04,8.18-10.94,10.32-17.55C94.68,130.11-8.25,114.51,10.1,35.53L10.1,35.53z"/><path class="st3" d="M111.52,80.73c-0.21,1.13-1.31,1.88-2.45,1.66c-1.13-0.21-1.88-1.31-1.66-2.45 c1.22-6.49,1.37-12.12,0.66-17.05c-0.71-4.87-2.27-9.06-4.49-12.75c-0.6-0.99-0.28-2.27,0.71-2.87c0.99-0.6,2.27-0.28,2.87,0.71 c2.5,4.15,4.25,8.86,5.05,14.3C113,67.68,112.84,73.77,111.52,80.73L111.52,80.73L111.52,80.73z"/></g></svg>