<svg id="logo-77" width="105" height="40" viewBox="0 0 105 40" fill="none" xmlns="http://www.w3.org/2000/svg"><path class="ccustom" d="M48.136 35.2381H50.8704V24.9238H48.136V35.2381ZM48.136 23.3153H50.8704V20.8624H48.136V23.3153Z" fill="black"></path><path class="ccustom" d="M52.6323 38.6159H55.3667V34.072H55.407C55.99 34.9566 56.935 35.5397 58.3826 35.5397C61.0366 35.5397 62.8461 33.4286 62.8461 30.091C62.8461 26.874 61.0969 24.6423 58.3625 24.6423C56.9551 24.6423 55.99 25.3058 55.3265 26.2105H55.2662V24.9238H52.6323V38.6159ZM57.7996 33.2677C56.171 33.2677 55.3064 32.0413 55.3064 30.1714C55.3064 28.3217 55.99 26.8539 57.699 26.8539C59.3879 26.8539 60.0715 28.2211 60.0715 30.1714C60.0715 32.1217 59.1869 33.2677 57.7996 33.2677Z" fill="black"></path><path class="ccustom" d="M68.3007 35.5397C70.8742 35.5397 72.6435 34.2931 72.6435 32.2222C72.6435 29.8095 70.7335 29.327 69.0044 28.9651C67.5366 28.6635 66.1694 28.583 66.1694 27.6984C66.1694 26.9545 66.8731 26.5523 67.9388 26.5523C69.1049 26.5523 69.8086 26.9545 69.9292 28.0603H72.4023C72.2012 25.9894 70.6933 24.6423 67.979 24.6423C65.6266 24.6423 63.7768 25.7079 63.7768 27.9396C63.7768 30.1915 65.5864 30.6942 67.4361 31.0561C68.8435 31.3375 70.1504 31.4381 70.1504 32.4233C70.1504 33.1471 69.4668 33.6095 68.2604 33.6095C67.034 33.6095 66.1895 33.0868 66.0086 31.9005H63.4752C63.6361 34.0921 65.3049 35.5397 68.3007 35.5397Z" fill="black"></path><path class="ccustom" d="M83.0252 35.2381V24.9238H80.2908V30.8751C80.2908 32.2423 79.5067 33.2074 78.2199 33.2074C77.0538 33.2074 76.5109 32.5439 76.5109 31.3375V24.9238H73.7966V31.8C73.7966 34.0518 75.0834 35.5196 77.3755 35.5196C78.8231 35.5196 79.6273 34.9767 80.3311 34.0317H80.3914V35.2381H83.0252Z" fill="black"></path><path class="ccustom" d="M84.7939 35.2381H87.5284V29.2465C87.5284 27.8793 88.2723 26.9947 89.3781 26.9947C90.3834 26.9947 90.9665 27.5978 90.9665 28.764V35.2381H93.7009V29.2465C93.7009 27.8793 94.4046 26.9947 95.5506 26.9947C96.5559 26.9947 97.139 27.5978 97.139 28.764V35.2381H99.8734V28.3016C99.8734 26.0497 98.6469 24.6423 96.4755 24.6423C95.1686 24.6423 94.0829 25.3259 93.3792 26.4518H93.339C92.8363 25.3661 91.7908 24.6423 90.4839 24.6423C89.0564 24.6423 88.0511 25.3661 87.4881 26.3111H87.4278V24.9238H84.7939V35.2381Z" fill="black"></path><path class="ccustom" d="M48.1762 17.572H50.9106V3.19629H48.1762V17.572Z" fill="black"></path><path class="ccustom" d="M57.5966 17.8736C60.7935 17.8736 62.985 15.5011 62.985 12.4249C62.985 9.3487 60.7935 6.97621 57.5966 6.97621C54.3998 6.97621 52.2082 9.3487 52.2082 12.4249C52.2082 15.5011 54.3998 17.8736 57.5966 17.8736ZM57.5966 15.7826C55.9077 15.7826 54.9829 14.4355 54.9829 12.4249C54.9829 10.4143 55.9077 9.04712 57.5966 9.04712C59.2654 9.04712 60.2104 10.4143 60.2104 12.4249C60.2104 14.4355 59.2654 15.7826 57.5966 15.7826Z" fill="black"></path><path class="ccustom" d="M68.8 21.0906C70.3281 21.0906 71.6551 20.7287 72.5196 19.9244C73.2836 19.2207 73.7461 18.2355 73.7461 16.7879V7.25769H71.1122V8.34341H71.072C70.4487 7.47885 69.5037 6.97621 68.2169 6.97621C65.6032 6.97621 63.7534 8.94659 63.7534 12.0228C63.7534 15.1392 66.0053 16.9487 68.2974 16.9487C69.6043 16.9487 70.3884 16.426 70.9916 15.7424H71.0519V16.8683C71.0519 18.2757 70.308 19.0196 68.7598 19.0196C67.4931 19.0196 66.9101 18.517 66.6889 17.8736H63.9746C64.2561 19.8842 65.9852 21.0906 68.8 21.0906ZM68.7598 14.7572C67.3524 14.7572 66.4275 13.7318 66.4275 11.9826C66.4275 10.2535 67.3524 9.16775 68.7397 9.16775C70.3884 9.16775 71.1926 10.4545 71.1926 11.9625C71.1926 13.4905 70.4889 14.7572 68.7598 14.7572Z" fill="black"></path><path class="ccustom" d="M80.3925 17.8736C83.5893 17.8736 85.7809 15.5011 85.7809 12.4249C85.7809 9.3487 83.5893 6.97621 80.3925 6.97621C77.1957 6.97621 75.0041 9.3487 75.0041 12.4249C75.0041 15.5011 77.1957 17.8736 80.3925 17.8736ZM80.3925 15.7826C78.7036 15.7826 77.7787 14.4355 77.7787 12.4249C77.7787 10.4143 78.7036 9.04712 80.3925 9.04712C82.0613 9.04712 83.0063 10.4143 83.0063 12.4249C83.0063 14.4355 82.0613 15.7826 80.3925 15.7826Z" fill="black"></path><path class="ccustom" d="M88.1779 13.6313H100V11.2789H88.1779V13.6313Z" fill="black"></path><path class="ccustom" d="M100.867 23.1717C100.867 22.709 101.242 22.3339 101.705 22.3339H103.38C103.843 22.3339 104.218 22.709 104.218 23.1717C104.218 23.6343 103.843 24.0094 103.38 24.0094H101.705C101.242 24.0094 100.867 23.6343 100.867 23.1717Z" fill="black"></path><path class="ccustom" fill-rule="evenodd" clip-rule="evenodd" d="M20.5216 0C31.5673 0 40.5216 8.9543 40.5216 20C40.5216 31.0457 31.5673 40 20.5216 40C9.47591 40 0.521606 31.0457 0.521606 20C0.521606 8.9543 9.47591 0 20.5216 0ZM19.7987 1.49659C17.5171 1.81769 15.3445 3.65108 13.658 6.7174C13.1688 7.60683 12.7274 8.58946 12.3427 9.65044C14.6359 9.07417 17.155 8.73442 19.7987 8.68187V1.49659ZM10.6524 10.1308C11.1307 8.62958 11.7159 7.2484 12.3912 6.02065C13.2272 4.50059 14.2194 3.18795 15.3373 2.17977C9.2584 3.94523 4.46683 8.73679 2.70138 14.8157C3.70955 13.6978 5.0222 12.7056 6.54226 11.8696C7.77001 11.1943 9.15118 10.6091 10.6524 10.1308ZM10.172 11.8211C9.59577 14.1143 9.25603 16.6334 9.20348 19.2771H2.01819C2.3393 16.9954 4.17269 14.8228 7.23901 13.1364C8.12844 12.6472 9.11107 12.2058 10.172 11.8211ZM10.6496 19.2771C10.7093 16.392 11.1246 13.6834 11.8118 11.2902C14.205 10.603 16.9137 10.1876 19.7987 10.1279V13.2508C18.7224 16.0062 16.5272 18.2012 13.7717 19.2771H10.6496ZM9.20348 20.7229H2.01819C2.3393 23.0046 4.17269 25.1771 7.23901 26.8636C8.12844 27.3528 9.11107 27.7942 10.172 28.1789C9.59577 25.8857 9.25603 23.3666 9.20348 20.7229ZM11.8118 28.7098C11.1246 26.3166 10.7093 23.608 10.6496 20.7229H13.7717C16.5272 21.7988 18.7225 23.9938 19.7987 26.7492V29.8721C16.9137 29.8124 14.205 29.397 11.8118 28.7098ZM10.6524 29.8692C9.15118 29.3909 7.77001 28.8057 6.54226 28.1304C5.0222 27.2944 3.70955 26.3022 2.70138 25.1843C4.46683 31.2632 9.2584 36.0548 15.3373 37.8202C14.2194 36.812 13.2272 35.4994 12.3912 33.9793C11.7159 32.7516 11.1307 31.3704 10.6524 29.8692ZM19.7987 38.5034C17.5171 38.1823 15.3445 36.3489 13.658 33.2826C13.1688 32.3932 12.7274 31.4105 12.3427 30.3496C14.6359 30.9258 17.155 31.2656 19.7987 31.3181V38.5034ZM25.7059 37.8202C26.8238 36.812 27.816 35.4994 28.6521 33.9793C29.3273 32.7516 29.9125 31.3704 30.3908 29.8692C31.892 29.3909 33.2732 28.8057 34.501 28.1304C36.021 27.2944 37.3337 26.3022 38.3418 25.1843C36.5764 31.2632 31.7848 36.0548 25.7059 37.8202ZM28.7005 30.3496C28.3158 31.4105 27.8744 32.3932 27.3852 33.2826C25.6988 36.3489 23.5262 38.1823 21.2445 38.5034V31.3181C23.8882 31.2656 26.4073 30.9258 28.7005 30.3496ZM30.8712 28.1789C31.9321 27.7942 32.9148 27.3528 33.8042 26.8636C36.8705 25.1771 38.7039 23.0046 39.025 20.7229H31.8397C31.7872 23.3666 31.4474 25.8857 30.8712 28.1789ZM30.3937 20.7229C30.334 23.608 29.9186 26.3166 29.2314 28.7098C26.8382 29.397 24.1296 29.8124 21.2445 29.8721V26.7515C22.3204 23.9951 24.5161 21.7991 27.2724 20.7229H30.3937ZM31.8397 19.2771H39.025C38.7039 16.9954 36.8705 14.8228 33.8042 13.1364C32.9148 12.6472 31.9321 12.2058 30.8712 11.8211C31.4474 14.1143 31.7872 16.6334 31.8397 19.2771ZM29.2314 11.2902C29.9186 13.6834 30.334 16.392 30.3937 19.2771H27.2724C24.5161 18.2009 22.3204 16.0049 21.2445 13.2485V10.1279C24.1296 10.1876 26.8382 10.603 29.2314 11.2902ZM30.3908 10.1308C31.892 10.6091 33.2732 11.1943 34.501 11.8696C36.021 12.7056 37.3337 13.6978 38.3418 14.8157C36.5764 8.73679 31.7848 3.94523 25.7059 2.17977C26.8238 3.18795 27.816 4.50059 28.6521 6.02065C29.3273 7.2484 29.9125 8.62958 30.3908 10.1308ZM21.2445 1.49659C23.5262 1.81769 25.6988 3.65108 27.3852 6.7174C27.8744 7.60684 28.3158 8.58946 28.7005 9.65044C26.4073 9.07417 23.8882 8.73442 21.2445 8.68187V1.49659Z" fill="black"></path></svg>